<?xml version="1.0" encoding="UTF-8" standalone="no"?>
<!DOCTYPE svg PUBLIC "-//W3C//DTD SVG 1.1//EN" "http://www.w3.org/Graphics/SVG/1.1/DTD/svg11.dtd">
<svg width="100%" height="100%" viewBox="0 0 9934 14044" version="1.1" xmlns="http://www.w3.org/2000/svg" xmlns:xlink="http://www.w3.org/1999/xlink" xml:space="preserve" xmlns:serif="http://www.serif.com/" style="fill-rule:evenodd;clip-rule:evenodd;stroke-linejoin:round;stroke-miterlimit:2;">
    <g transform="matrix(103.024,0,0,103.024,908.826,3735.2)">
        <path d="M21.267,49.144L21.114,48.508L18.636,38.719C18.406,37.861 19.217,37.184 21.068,36.688L26.96,35.109C27.457,34.976 28.542,34.782 30.216,34.527C31.89,34.272 32.983,34.197 33.495,34.302C33.738,34.323 33.658,34.484 33.551,34.701C33.418,34.969 33.242,35.325 33.586,35.607C33.757,35.784 33.73,36.268 33.698,36.83C33.668,37.367 33.634,37.976 33.764,38.461C33.983,38.953 33.994,38.719 34.012,38.299C34.034,37.797 34.067,37.028 34.485,36.916C34.69,36.861 34.669,36.21 34.652,35.699C34.643,35.422 34.635,35.186 34.666,35.109C34.666,35.055 34.666,35.002 34.666,34.948C34.666,34.128 34.667,33.348 34.485,32.67L35.061,31.56C34.934,31.086 34.984,30.38 35.037,29.627C35.085,28.945 35.136,28.223 35.061,27.599C34.991,26.771 35.272,26.195 35.468,25.792C35.587,25.55 35.674,25.37 35.638,25.235C35.529,24.828 35.411,24.569 35.285,24.458C35.158,24.347 34.892,24.346 34.485,24.455C34.079,24.563 33.838,24.749 33.764,25.011C33.689,25.273 33.672,25.664 33.715,26.185C33.758,26.706 33.715,27.177 33.586,27.599C33.457,28.021 33.153,28.514 32.675,29.077C32.23,29.584 31.581,30.048 30.726,30.471C29.904,30.836 28.139,31.382 25.43,32.107L23.33,32.67L20.436,33.518L18.725,33.904C17.9,34.077 17.191,33.057 16.598,30.844C15.231,25.742 14.289,21.954 13.771,19.48L13.626,18.938C13.26,17.39 13.236,16.308 13.554,15.69C13.918,15.061 14.935,14.522 16.606,14.074C18.276,13.627 22.593,12.76 29.556,11.475C31.669,11.054 33.125,12.334 33.924,15.314C34.009,15.634 34.031,15.953 34.05,16.224C34.084,16.718 34.106,17.054 34.485,16.952C35.118,16.783 35.213,15.932 35.061,15.005C34.981,14.526 35.013,13.964 35.051,13.325C35.089,12.666 35.133,11.925 35.061,11.109C34.99,10.29 35.012,9.553 35.03,8.95C35.048,8.37 35.062,7.913 34.985,7.625C34.694,6.542 34.165,6.103 33.398,6.308L18.115,10.766C14.232,11.807 11.053,12.586 8.578,13.104C6.149,13.61 4.393,14.008 3.309,14.298L1.48,14.788C1.029,14.909 0.653,15.131 0.352,15.453C0.051,15.776 -0.057,16.095 0.028,16.411C0.197,17.043 0.688,17.25 1.501,17.033C2.314,16.815 3.072,16.757 3.777,16.858C6.165,17.283 7.759,18.985 8.557,21.965L9.61,25.894L12.564,37.732C13.811,42.385 14.79,46.189 15.502,49.144L21.267,49.144Z" style="fill:rgb(0,39,255);"/>
    </g>
    <g transform="matrix(103.024,0,0,103.024,908.826,3735.2)">
        <path d="M43.574,49.145C43.579,49.101 43.582,49.057 43.582,49.011C43.582,48.17 42.834,47.749 41.338,47.749C39.889,47.749 38.697,47.235 37.762,46.207C36.874,45.178 36.337,44.197 36.15,43.262C35.963,42.327 35.869,41.392 35.869,40.457L35.939,37.652L36.08,27.556C36.08,26.668 37.038,26.223 38.954,26.223L45.054,26.223C45.569,26.223 46.667,26.317 48.35,26.504C50.033,26.691 51.108,26.901 51.575,27.135C52.089,27.322 52.58,27.743 53.048,28.397C53.281,28.818 53.398,29.542 53.398,30.571C53.585,31.739 54.076,32.324 54.871,32.324C55.03,32.324 54.865,32.187 54.67,32.026C54.463,31.855 54.222,31.656 54.294,31.56C54.429,31.391 54.369,29.821 54.325,28.681C54.308,28.245 54.294,27.872 54.294,27.665L55.362,24.821C55.362,23.886 55.455,22.764 55.642,21.456C55.876,20.147 55.993,19.305 55.993,18.931C55.993,18.511 55.946,18.23 55.852,18.09C55.759,17.95 55.502,17.88 55.081,17.88C54.66,17.88 54.38,17.996 54.24,18.23C54.099,18.464 53.983,18.838 53.889,19.352C53.796,19.866 53.632,20.31 53.398,20.684C53.164,21.058 52.744,21.456 52.136,21.876C51.575,22.25 50.827,22.531 49.892,22.718C49.004,22.858 47.158,22.928 44.353,22.928L42.18,22.928L39.165,22.998L37.412,22.928C36.57,22.881 36.15,21.713 36.15,19.422C36.15,14.14 36.22,10.237 36.36,7.713L36.36,7.152C36.407,5.563 36.664,4.511 37.131,3.997C37.646,3.482 38.767,3.225 40.497,3.225C42.226,3.225 46.62,3.506 53.679,4.067C55.829,4.207 56.904,5.82 56.904,8.905C56.904,9.84 57.208,10.307 57.816,10.307C58.47,10.307 58.844,9.84 58.937,8.905C59.031,7.923 59.218,6.638 59.498,5.048C59.779,3.459 59.919,2.361 59.919,1.753C59.919,0.631 59.522,0.07 58.727,0.07L42.811,0.421C38.791,0.421 35.519,0.351 32.995,0.21C30.517,0.07 28.717,0 27.596,0L25.702,0C25.235,0 24.814,0.117 24.44,0.351C24.066,0.584 23.879,0.865 23.879,1.192C23.879,1.846 24.3,2.174 25.142,2.174C25.983,2.174 26.731,2.314 27.385,2.594C29.582,3.623 30.681,5.679 30.681,8.765L30.681,12.831L30.47,25.031C30.47,34.941 30.307,41.088 29.98,43.472C29.699,45.575 28.951,46.838 27.736,47.258C26.147,47.819 25.235,48.17 25.001,48.31C24.846,48.426 24.755,48.705 24.729,49.145L43.574,49.145Z" style="fill:rgb(0,39,255);"/>
    </g>
    <g transform="matrix(103.024,0,0,103.024,908.826,3735.2)">
        <path d="M81.627,15.168C81.524,15.105 81.406,15.055 81.271,15.019L65.806,11.238C61.923,10.198 58.781,9.283 56.379,8.495C54.022,7.718 52.302,7.184 51.218,6.894L49.39,6.404C48.938,6.283 48.502,6.287 48.08,6.416C47.658,6.545 47.405,6.767 47.32,7.084C47.151,7.716 47.473,8.141 48.285,8.358C49.098,8.576 49.784,8.905 50.344,9.345C52.2,10.907 52.728,13.178 51.93,16.158L50.877,20.087L47.517,31.817C45.079,40.914 43.378,46.689 42.415,49.144L48.504,49.144C48.57,48.797 48.648,48.454 48.739,48.114L49.533,45.423L52.281,35.707C52.511,34.849 53.552,34.668 55.403,35.164L61.295,36.743C61.792,36.876 62.829,37.25 64.406,37.866C65.983,38.483 66.967,38.964 67.358,39.311C67.806,39.624 68.171,40.158 68.454,40.911C68.57,41.378 68.496,42.108 68.23,43.101C68.108,44.278 68.431,44.97 69.198,45.175C69.514,45.26 69.764,45.23 69.948,45.086C70.189,44.909 70.406,44.459 70.6,43.736L71.614,38.056C71.856,37.153 72.237,36.093 72.756,34.877C73.321,33.674 73.651,32.891 73.748,32.53C73.857,32.124 73.884,31.841 73.83,31.681C73.776,31.521 73.546,31.387 73.14,31.278C72.733,31.169 72.432,31.209 72.236,31.399C72.04,31.588 71.831,31.919 71.607,32.392C71.384,32.864 71.111,33.251 70.788,33.552C70.466,33.852 69.957,34.127 69.261,34.376C68.622,34.592 67.827,34.67 66.876,34.608C65.982,34.514 64.18,34.104 61.471,33.378L59.371,32.815L56.441,32.103L54.766,31.581C53.965,31.318 53.861,30.081 54.454,27.868C55.821,22.766 56.899,19.014 57.688,16.612L57.833,16.07C58.29,14.548 58.81,13.598 59.395,13.223C60.025,12.859 61.175,12.901 62.845,13.349C64.516,13.796 68.688,15.204 75.36,17.573C77.401,18.265 78.022,20.101 77.224,23.081C76.982,23.984 77.154,24.514 77.741,24.671C78.373,24.841 78.855,24.486 79.188,23.607C79.532,22.683 80.045,21.49 80.728,20.027C81.11,19.208 81.409,18.527 81.627,17.982L81.627,15.168Z" style="fill:rgb(0,39,255);"/>
    </g>
</svg>
